<?xml version="1.0" encoding="UTF-8" standalone="no"?>
<svg
   xmlns:dc="http://purl.org/dc/elements/1.1/"
   xmlns:cc="http://creativecommons.org/ns#"
   xmlns:rdf="http://www.w3.org/1999/02/22-rdf-syntax-ns#"
   xmlns:svg="http://www.w3.org/2000/svg"
   xmlns="http://www.w3.org/2000/svg"
   version="1.0"
   width="700.000000pt"
   height="700.000000pt"
   viewBox="0 0 700.000000 700.000000"
   preserveAspectRatio="xMidYMid meet"
   id="svg10">
  <defs
     id="defs14" />
  <metadata
     id="metadata2">
Created by potrace 1.14, written by Peter Selinger 2001-2017
<rdf:RDF>
  <cc:Work
     rdf:about="">
    <dc:format>image/svg+xml</dc:format>
    <dc:type
       rdf:resource="http://purl.org/dc/dcmitype/StillImage" />
    <dc:title></dc:title>
  </cc:Work>
</rdf:RDF>
</metadata>
  <path
     d="m 328,0.6 c -1.9,0.2 -8.4,0.9 -14.5,1.4 -57.8,5.6 -118,28.3 -166,62.5 -23.7,16.9 -53.1,44.6 -70.9,67 -41.6,52.1 -67.3,114.7 -74.8,182 -1.7,15.4 -1.7,58.5 0,73 6.9,58.8 25.4,109.9 56.7,157 12.6,18.9 24.2,33.2 41,50.4 58,59.5 129.5,94.3 214,104.3 14.5,1.7 57.6,1.7 73,0 82.2,-9.1 155.6,-44.7 213.1,-103.4 20.3,-20.6 34.8,-39 48.7,-61.8 27.4,-44.9 43.2,-91.5 49.9,-146.5 1.6,-13.5 1.6,-59.1 0,-73 C 688.2,228.9 653.5,157.8 593.9,99.4 538.4,45.2 469,12 391,2.4 379.3,0.9 335.7,-0.3 328,0.6 Z m 59,50.9 c 128.7,16.1 231.9,112 257.9,239.5 4.1,20.2 5.4,34.7 5.4,59 0,30.8 -2.5,50.3 -10.4,79.9 C 619.7,506 566.2,573.9 495.4,613.3 406.3,662.9 295,663.1 205.5,613.7 135.5,575.2 82.1,508.6 61,433.5 52.6,403.6 49.7,381.7 49.7,350 c 0,-32.3 3.1,-54.8 11.9,-85.2 28.1,-97.7 109,-177.4 207.1,-204.3 20.9,-5.8 38.1,-8.7 64.3,-10.9 8.9,-0.8 41.8,0.4 54,1.9 z"
     id="path4"
     style="fill:#000000;stroke:none;stroke-width:0.1" />
  <path
     d="m 213.5,138.2 c -0.3,0.7 -0.4,96.5 -0.3,212.8 l 0.3,211.5 h 68 c 73.8,0 80.7,-0.4 106.5,-5.5 19,-3.8 33.5,-8.6 49.5,-16.5 15.5,-7.6 25.6,-14.2 37,-24.1 32.4,-28.4 51.6,-69.6 59.1,-126.9 2.4,-18.2 2.4,-64.6 0.1,-83.4 -7,-55.6 -25.9,-96.6 -56.7,-122.9 -32.7,-28 -74.1,-41.8 -135.1,-45.2 -27.1,-1.5 -127.8,-1.3 -128.4,0.2 z M 363,200.5 c 50.9,9 76.3,40.8 85.2,106.5 2,14.8 1.7,70.3 -0.5,85.5 -7.4,52.1 -25.2,82.5 -57.2,98.1 -17.8,8.6 -35.4,11.4 -73.2,11.4 H 295 V 349.9 197.7 l 29.3,0.6 c 20.8,0.4 31.9,1 38.7,2.2 z"
     id="path6"
     style="fill:#000000;stroke:none;stroke-width:0.1" />
</svg>
